<?xml version="1.0" encoding="UTF-8"?>
<svg version="1.1" xmlns="http://www.w3.org/2000/svg" width="1203" height="1308" viewBox="0 0 1203 1308">
<defs>
<mask id="cutout" maskUnits="userSpaceOnUse" x="0" y="0" width="1203" height="1308">
<rect x="0" y="0" width="1203" height="1308" fill="white"/>
<path d="M0 0 C2.01953125 0.55859375 2.01953125 0.55859375 4.375 1.4375 C5.34824219 1.75847656 6.32148438 2.07945312 7.32421875 2.41015625 C10.31897497 3.43623416 13.28577314 4.51850611 16.24755859 5.63574219 C19.47393882 6.85165138 22.70787145 8.04695239 25.94213867 9.24169922 C27.62178227 9.86276816 29.30036979 10.48670218 30.9777832 11.11376953 C31.75081787 11.40106934 32.52385254 11.68836914 33.3203125 11.984375 C34.34922607 12.36867676 34.34922607 12.36867676 35.39892578 12.76074219 C37.3730714 13.4368395 39.34415732 13.96172528 41.375 14.4375 C40.02567304 17.30014292 38.49152336 19.79630319 36.6171875 22.34375 C36.07843994 23.08077148 35.53969238 23.81779297 34.98461914 24.57714844 C34.41219482 25.35606445 33.83977051 26.13498047 33.25 26.9375 C28.11427033 33.99606589 23.10911936 41.10167671 18.375 48.4375 C17.64724365 49.55705078 17.64724365 49.55705078 16.90478516 50.69921875 C3.87686828 70.77209157 -8.19931511 91.260619 -19.1015625 112.56640625 C-21.16632616 116.59386411 -23.34167219 120.53011508 -25.625 124.4375 C-27.50097289 124.15215784 -29.3757448 123.85891506 -31.25 123.5625 C-32.29414063 123.40007812 -33.33828125 123.23765625 -34.4140625 123.0703125 C-37.625 122.4375 -37.625 122.4375 -40.5390625 121.45703125 C-44.10480156 120.27898328 -47.68391204 119.62776308 -51.375 119 C-56.85776843 118.02909962 -62.06875566 116.78508699 -67.37109375 115.0625 C-70.493789 114.19658797 -73.58815259 113.89026356 -76.8125 113.6484375 C-78.625 113.4375 -78.625 113.4375 -80.625 112.4375 C-79.16433377 107.37228645 -76.94726226 103.22688839 -74.25 98.75 C-73.81155762 98.01523437 -73.37311523 97.28046875 -72.92138672 96.5234375 C-64.47394988 82.44734324 -55.63581963 68.72639419 -46.0390625 55.40576172 C-44.68291748 53.5181165 -43.33917946 51.62236348 -42 49.72265625 C-33.86952477 38.20645146 -25.28642473 27.07656745 -16.3125 16.20581055 C-13.87703352 13.25150582 -11.48853676 10.30780383 -9.30078125 7.1640625 C-4.58840392 0.55377289 -4.58840392 0.55377289 0 0 Z " fill="black" transform="translate(438.625,796.5625)"/>
<path d="M0 0 C2.89743709 1.31967086 5.68118066 2.76151225 8.47631836 4.28613281 C9.54301758 4.86621094 10.6097168 5.44628906 11.70874023 6.04394531 C12.8115332 6.64722656 13.91432617 7.25050781 15.05053711 7.87207031 C16.73373047 8.78859375 16.73373047 8.78859375 18.45092773 9.72363281 C21.21465335 11.22898123 23.97695917 12.73687272 26.73803711 14.24707031 C24.40360484 17.20413817 22.19384279 19.89311234 19.30053711 22.30957031 C11.3523571 29.11166444 3.64964274 36.22377481 -3.67602539 43.69238281 C-5.37268621 45.35561189 -7.14200255 46.89269598 -8.94946289 48.43457031 C-16.59117179 55.03557956 -23.74197336 62.29763064 -30.28540039 69.98535156 C-33.58644321 73.76263178 -37.03551954 77.40402027 -40.46875 81.06103516 C-41.26551147 81.9130249 -41.26551147 81.9130249 -42.07836914 82.78222656 C-42.61091309 83.34312988 -43.14345703 83.9040332 -43.69213867 84.48193359 C-45.3086585 86.23820079 -45.3086585 86.23820079 -46.71850586 88.27392578 C-48.13261636 90.20000064 -49.37776267 91.77504781 -51.26196289 93.24707031 C-56.90024494 93.40494221 -61.56803176 91.61482996 -66.76196289 89.49707031 C-73.1631597 86.97811617 -79.60198311 84.81140234 -86.20922852 82.89648438 C-91.05421601 81.45481719 -91.05421601 81.45481719 -93.26196289 79.24707031 C-90.13623818 76.09634903 -87.00702979 72.94913895 -83.87475586 69.80493164 C-82.81295428 68.73814734 -81.75205731 67.67046178 -80.69213867 66.60180664 C-75.26900984 61.13514939 -69.84314167 55.72575454 -63.9831543 50.72094727 C-61.40220504 48.5108493 -58.93581733 46.18803123 -56.44946289 43.87207031 C-51.803703 39.58028009 -47.02120455 35.51640587 -42.09399414 31.54785156 C-39.02665892 29.05590612 -36.01734141 26.50034801 -33.01196289 23.93457031 C-27.01530107 18.831412 -20.90431379 13.88226537 -14.72290039 9.00488281 C-12.60168604 7.32938906 -10.54052598 5.62724424 -8.48852539 3.86425781 C-7.32450195 2.878125 -7.32450195 2.878125 -6.13696289 1.87207031 C-5.49500977 1.30746094 -4.85305664 0.74285156 -4.19165039 0.16113281 C-2.26196289 -0.75292969 -2.26196289 -0.75292969 0 0 Z " fill="black" transform="translate(558.261962890625,685.7529296875)"/>
<path d="M0 0 C0.680625 0.4846875 1.36125 0.969375 2.0625 1.46875 C3.12984375 2.1596875 4.1971875 2.850625 5.296875 3.5625 C6.47068638 4.36174685 7.64251924 5.16390609 8.8125 5.96875 C9.41449219 6.37222656 10.01648438 6.77570312 10.63671875 7.19140625 C12.14972202 8.23095271 13.61122163 9.34463843 15.0625 10.46875 C15.0625 11.12875 15.0625 11.78875 15.0625 12.46875 C12.73738209 14.05752965 10.41368491 15.52533391 8 16.96875 C6.50935526 17.88108055 5.01979371 18.79518296 3.53125 19.7109375 C2.77585937 20.17467773 2.02046875 20.63841797 1.2421875 21.11621094 C-16.1068145 31.88160869 -32.80964472 43.88054406 -49.25 55.96875 C-50.03246094 56.54278564 -50.81492187 57.11682129 -51.62109375 57.70825195 C-54.85867502 60.10388005 -58.04814938 62.51074072 -61.08984375 65.15234375 C-61.94707031 65.89613281 -62.80429687 66.63992188 -63.6875 67.40625 C-64.70070313 68.34791016 -64.70070313 68.34791016 -65.734375 69.30859375 C-69.17454701 71.12017369 -71.21079128 70.44143242 -74.9375 69.46875 C-78.16010453 68.03849293 -81.19580866 66.35109237 -84.25 64.59375 C-85.06017578 64.14644531 -85.87035156 63.69914063 -86.70507812 63.23828125 C-92.66903093 59.8714536 -92.66903093 59.8714536 -94.9375 56.46875 C-77.39227005 43.53164733 -58.74445477 32.4543699 -39.9375 21.46875 C-37.8580564 20.25133029 -35.77862964 19.03388182 -33.69921875 17.81640625 C-29.6119659 15.42453357 -25.51899838 13.04288739 -21.421875 10.66796875 C-18.07626795 8.72634236 -14.7520055 6.75820419 -11.453125 4.73828125 C-10.80408203 4.34745361 -10.15503906 3.95662598 -9.48632812 3.55395508 C-7.83349897 2.55682891 -6.18971782 1.54474507 -4.546875 0.53125 C-1.9375 -0.53125 -1.9375 -0.53125 0 0 Z " fill="black" transform="translate(684.9375,605.53125)"/>
<path d="M0 0 C2.32765516 1.44910419 3.99225196 3.08563559 6 5 C6 5.66 6 6.32 6 7 C5.21689453 7.36125977 4.43378906 7.72251953 3.62695312 8.09472656 C-19.78349254 18.91163709 -42.94806121 30.0485062 -65.54296875 42.50390625 C-66.33106934 42.93719238 -67.11916992 43.37047852 -67.93115234 43.81689453 C-69.59926244 44.77083146 -71.21117352 45.82265203 -72.80078125 46.90234375 C-75 48 -75 48 -77.48046875 47.96484375 C-80.74099994 46.71623723 -82.755463 44.93012685 -85.3125 42.5625 C-86.63701172 41.35787109 -86.63701172 41.35787109 -87.98828125 40.12890625 C-90 38 -90 38 -90 36 C-67.75522219 25.14094038 -45.32475117 14.80314409 -22.34814453 5.58126831 C-20.87582253 4.98935234 -19.40508664 4.39347449 -17.93603516 3.79348755 C-15.88168424 2.95701369 -13.8211468 2.13823736 -11.7578125 1.32421875 C-10.5733252 0.85072998 -9.38883789 0.37724121 -8.16845703 -0.1105957 C-4.87171615 -1.03601002 -3.21672616 -1.05060836 0 0 Z " fill="black" transform="translate(804,553)"/>
</mask>
</defs>
<g mask="url(#cutout)">
<path d="M0 0 C-1.64454158 5.55018617 -4.11105121 10.56944425 -6.6640625 15.7421875 C-7.1285379 16.69050446 -7.59301331 17.63882141 -8.07156372 18.61587524 C-9.58557428 21.7041325 -11.10516326 24.7896064 -12.625 27.875 C-13.67371403 30.01096391 -14.72221529 32.14703231 -15.77050781 34.28320312 C-22.03358596 47.033611 -28.35338113 59.75470903 -34.72894287 72.44918823 C-40.16965612 83.28471677 -45.45372132 94.18751192 -50.64501953 105.14453125 C-53.14603643 110.41514272 -55.66590069 115.67671144 -58.1875 120.9375 C-58.9441394 122.51748779 -58.9441394 122.51748779 -59.71606445 124.12939453 C-62.87343632 130.7053951 -66.11309989 137.23337953 -69.41479492 143.73779297 C-71.28313947 147.45475818 -72.95266722 151.20182812 -74.5 155.0625 C-76.28034279 159.47209074 -78.34553672 163.64438692 -80.625 167.8125 C-84.26949126 174.47683989 -87.60284354 181.27066503 -90.875 188.125 C-91.35146973 189.12120361 -91.82793945 190.11740723 -92.31884766 191.14379883 C-94.33691386 195.39100633 -96.28790854 199.6185712 -98 204 C-98.66 204 -99.32 204 -100 204 C-100.29132812 202.98164062 -100.58265625 201.96328125 -100.8828125 200.9140625 C-103.08054062 193.30255194 -105.37921541 185.74853616 -107.9375 178.25 C-110.5367885 170.62895684 -112.79224726 162.93583401 -114.90795898 155.16699219 C-115.94314577 151.42336257 -117.00381725 147.8114681 -118.58203125 144.2578125 C-119.92136885 141.1806567 -120.76363045 138.32794831 -121.5 135.0625 C-122.66020169 130.18228654 -124.12284603 125.64819079 -126 121 C-130.10318661 122.72232524 -133.29265186 125.57115781 -136.6875 128.375 C-170.74965944 155.99723695 -209.52512078 178.48893262 -248.08325195 199.14746094 C-257.36494787 204.14287934 -266.44904074 209.45364736 -275.53125 214.80078125 C-279.37139584 217.05864477 -283.23366709 219.26269994 -287.13598633 221.41088867 C-313.0499189 235.68306764 -338.20667215 252.41108237 -362 270 C-362.62342285 270.46035645 -363.2468457 270.92071289 -363.88916016 271.39501953 C-379.95104083 283.28010727 -395.90861927 295.43970708 -410.6875 308.90234375 C-412.66384372 310.69507446 -414.6645673 312.44795227 -416.6875 314.1875 C-426.98858073 323.19838573 -436.81019207 332.71463623 -446.5 342.375 C-447.3362793 343.20668701 -448.17255859 344.03837402 -449.03417969 344.89526367 C-453.34111693 349.21299849 -457.49566868 353.60211325 -461.47167969 358.2265625 C-463.55122834 360.63963621 -465.71357639 362.97277714 -467.875 365.3125 C-471.91402153 369.74631311 -475.77506878 374.28054584 -479.5390625 378.94921875 C-481.33280236 381.17288674 -483.13872383 383.38198478 -484.9609375 385.58203125 C-495.67974582 398.56739348 -505.90198256 411.97164765 -515.09765625 426.0859375 C-516.84627309 428.76451689 -518.64278339 431.40604666 -520.44726562 434.04711914 C-536.02018179 456.99877728 -549.33676282 481.63718064 -561.0625 506.75 C-561.58650391 507.86713379 -562.11050781 508.98426758 -562.65039062 510.13525391 C-565.76435953 516.91407818 -568.4044791 523.75534888 -570.84692383 530.80249023 C-571.80579318 533.46145952 -572.84695088 535.99165247 -574.0390625 538.55078125 C-576.65848439 544.25334415 -578.48193332 550.21286682 -580.375 556.1875 C-580.7678418 557.42346924 -581.16068359 558.65943848 -581.56542969 559.93286133 C-587.3210192 578.20721157 -591.93259373 596.43121825 -595.47705078 615.26171875 C-595.91903182 617.57603219 -596.38471753 619.88222566 -596.87109375 622.1875 C-597.67356038 626.11251811 -598.37252534 630.04406924 -599 634 C-599.13680176 634.84369141 -599.27360352 635.68738281 -599.41455078 636.55664062 C-601.89851354 652.6309881 -602.29399765 668.58159418 -602.3125 684.8125 C-602.31599457 685.80654846 -602.31948914 686.80059692 -602.3230896 687.82476807 C-602.34515694 699.13795777 -601.81447369 709.82093927 -600 721 C-599.67 725.29 -599.34 729.58 -599 734 C-658.73 734 -718.46 734 -780 734 C-778.875 720.5 -778.875 720.5 -777.6171875 715.46875 C-777.20267334 713.78072266 -777.20267334 713.78072266 -776.77978516 712.05859375 C-776.48120605 710.88425781 -776.18262695 709.70992187 -775.875 708.5 C-775.39754296 706.58131639 -774.92008905 704.66263199 -774.44284058 702.74389648 C-773.95256579 700.77900885 -773.45793824 698.8152524 -772.96289062 696.8515625 C-772.05201686 693.20806744 -771.16923534 689.55913123 -770.296875 685.90625 C-766.23265369 669.02474056 -761.33190703 652.51887152 -756 636 C-755.4973228 634.42189826 -754.9947079 632.84377668 -754.4921875 631.265625 C-752.34379632 624.59828827 -749.88085112 618.1324172 -747.1171875 611.6953125 C-745.84777957 608.63275491 -744.82980006 605.5351528 -743.82421875 602.37890625 C-742.13062985 597.49077525 -740.03505446 592.75382288 -738 588 C-739.02351563 587.85304688 -740.04703125 587.70609375 -741.1015625 587.5546875 C-751.79598337 585.96570418 -762.40097913 583.99937751 -773 581.875 C-774.00658661 581.67411774 -774.00658661 581.67411774 -775.0335083 581.46917725 C-786.43509137 579.18830288 -786.43509137 579.18830288 -790 578 C-792.33299825 577.96045766 -794.66708189 577.95598268 -797 578 C-798.88960798 581.99516007 -800.7731986 585.99309119 -802.65185547 589.9934082 C-803.28833022 591.34667551 -803.92629106 592.69924511 -804.56591797 594.05102539 C-809.07097188 603.57548977 -813.16640341 613.18743191 -817 623 C-817.70513402 624.74868932 -818.41307227 626.49625302 -819.125 628.2421875 C-823.03017072 637.87034841 -826.75815793 647.52694365 -830.1015625 657.36474609 C-830.76285333 659.30441272 -831.43045004 661.24193232 -832.1015625 663.17822266 C-837.00332849 677.336025 -841.59558745 691.51523799 -845.4375 706 C-845.75509277 707.1964917 -846.07268555 708.3929834 -846.39990234 709.62573242 C-848.50200143 717.72067765 -850.24455867 725.80794047 -852 734 C-900.18 734 -948.36 734 -998 734 C-986.76113561 700.28340683 -973.14651367 666.10998006 -956.73681641 634.54638672 C-954.99280004 631.15819869 -953.48568445 627.75815498 -952.109375 624.203125 C-949.95676453 618.72328122 -947.32124488 613.57095454 -944.5625 608.375 C-944.04026855 607.3842749 -943.51803711 606.3935498 -942.97998047 605.37280273 C-941.32680586 602.24486251 -939.6645311 599.12190972 -938 596 C-937.47164551 595.00532715 -936.94329102 594.0106543 -936.39892578 592.98583984 C-912.61834003 548.29360047 -885.38206217 505.73489714 -854 466 C-853.24976563 465.04480469 -852.49953125 464.08960938 -851.7265625 463.10546875 C-846.77864427 456.85493531 -841.63181225 450.77496765 -836.45751953 444.71191406 C-835.00661629 443.00777109 -833.5633079 441.29743663 -832.12109375 439.5859375 C-825.85590624 432.17847824 -819.37567678 425.01429287 -812.71484375 417.9609375 C-810.18250671 415.27898989 -807.69124027 412.5628968 -805.2124939 409.83137512 C-799.42236147 403.46233156 -793.45440209 397.29884181 -787.35571289 391.2253418 C-785.79910611 389.67415273 -784.24799829 388.11760608 -782.69726562 386.56054688 C-777.86473383 381.72480161 -772.98858643 376.99158495 -767.7902832 372.54516602 C-764.83744604 369.99661748 -762.02439731 367.30094731 -759.1875 364.625 C-754.19800337 359.95639492 -749.10076046 355.50872329 -743.765625 351.234375 C-740.69189401 348.75107821 -737.69044503 346.19285286 -734.6875 343.625 C-728.49093897 338.35040907 -722.13404126 333.30127352 -715.70117188 328.31884766 C-714.08364394 327.06484566 -712.47136083 325.80408702 -710.859375 324.54296875 C-701.74539909 317.45559301 -692.40399609 310.69623807 -683 304 C-681.7941626 303.14051758 -681.7941626 303.14051758 -680.56396484 302.26367188 C-611.34115598 253.04467371 -535.00002502 214.18155765 -425.67626953 174.24316406 C-421.63078204 172.87514558 -417.59393718 171.48352303 -413.55859375 170.0859375 C-412.11776332 169.58754731 -410.67692675 169.08917484 -409.23608398 168.59082031 C-407.15511643 167.87095201 -405.07426493 167.1507631 -402.993927 166.42907715 C-390.40068913 162.06406755 -377.72755718 158.15150372 -364.875 154.625 C-358.12335742 152.7570959 -351.3914206 150.8623143 -344.72363281 148.71191406 C-343.43730957 148.2976416 -343.43730957 148.2976416 -342.125 147.875 C-341.4554277 147.65822098 -340.78585541 147.44144196 -340.09599304 147.21809387 C-334.97022944 145.57710382 -329.82717946 144.1237314 -324.61328125 142.79296875 C-313.22336588 139.83742263 -301.90292466 136.64121669 -290.58178711 133.43383789 C-287.04439028 132.432373 -283.50563886 131.43579767 -279.96679688 130.43945312 C-277.67699996 129.79196143 -275.38728353 129.14418502 -273.09765625 128.49609375 C-272.05988541 128.20431747 -271.02211456 127.9125412 -269.95289612 127.61192322 C-260.85961592 125.02768036 -251.74380645 122.33527829 -243.0625 118.5625 C-239.15566623 116.8924414 -235.23846826 115.33831882 -231.25 113.875 C-216.18185218 108.10460486 -201.47920626 101.19712889 -187.5324707 93.08520508 C-184.36781159 91.25144564 -181.57678229 89.76533342 -178 89 C-178 88.34 -178 87.68 -178 87 C-178.72574219 86.88011719 -179.45148437 86.76023437 -180.19921875 86.63671875 C-183.01351481 85.9969276 -185.22299148 85.07259155 -187.8125 83.8125 C-192.20509552 81.75148284 -196.65269526 79.96448564 -201.20703125 78.30078125 C-210.51026781 74.85548605 -219.69084696 71.12386182 -228.875 67.375 C-231.29859709 66.38811127 -233.7224438 65.40183741 -236.14630127 64.41558838 C-237.68836291 63.78805134 -239.23031762 63.16025149 -240.77215576 62.53216553 C-246.17275105 60.33291451 -251.58054309 58.15242052 -257 56 C-257 55.34 -257 54.68 -257 54 C-256.14599609 53.82114258 -255.29199219 53.64228516 -254.41210938 53.45800781 C-246.07056055 51.6933616 -237.78157809 49.77815342 -229.5 47.75 C-188.38558214 37.76817073 -188.38558214 37.76817073 -171.63378906 34.54467773 C-164.60674783 33.17108205 -157.65262256 31.53135441 -150.6875 29.875 C-120.39900422 22.70510649 -89.89704585 16.41011152 -59.31396484 10.63452148 C-53.8891085 9.59582975 -48.47555932 8.50127231 -43.0604248 7.41323853 C-36.96352335 6.19044478 -30.86381998 4.98200712 -24.76220703 3.78295898 C-23.15248147 3.46572221 -21.54311245 3.14667165 -19.93408203 2.82592773 C-17.56889126 2.35474295 -15.20257328 1.88964615 -12.8359375 1.42578125 C-12.12134369 1.28207596 -11.40674988 1.13837067 -10.67050171 0.99031067 C-7.06340118 0.28997969 -3.67619222 -0.1629597 0 0 Z " fill="#4AC320" transform="translate(1132,374)"/>
<path d="M0 0 C2.78778271 0.37317312 5.57719719 0.72310467 8.37011719 1.05566406 C9.08257095 1.14123566 9.79502472 1.22680725 10.52906799 1.31497192 C12.49009272 1.54934321 14.45145606 1.7808764 16.4128418 2.01220703 C21.44508821 2.73598848 26.35969358 3.85373845 31.25732422 5.20947266 C31.99337891 5.41266113 32.72943359 5.61584961 33.48779297 5.82519531 C34.32955078 6.05899902 35.17130859 6.29280273 36.03857422 6.53369141 C37.06595703 6.81519043 38.09333984 7.09668945 39.15185547 7.38671875 C58.05709856 12.5856606 76.76869958 18.07784758 94.70263672 26.07666016 C97.33278838 27.22542663 99.96153934 28.28339659 102.63623047 29.31884766 C118.0378145 35.44506917 133.24361277 43.34247299 147.03857422 52.53369141 C148.66322901 53.59281488 150.28826471 54.65135417 151.91357422 55.70947266 C168.57527637 66.62110536 184.2022677 78.24599822 199.03857422 91.53369141 C199.55871094 91.99598145 200.07884766 92.45827148 200.61474609 92.93457031 C212.02043036 103.09067213 223.30276607 113.66037766 232.74951172 125.68994141 C234.46084128 127.81596175 236.19232481 129.85132911 238.01513672 131.87744141 C246.05753914 140.83372553 252.93055842 150.25735353 259.55566406 160.30126953 C260.88809024 162.30714786 262.24540665 164.29138578 263.62060547 166.26806641 C288.03857422 201.59920288 288.03857422 201.59920288 288.03857422 211.53369141 C271.3074362 216.1492221 254.39866799 219.84192012 237.44335938 223.53051758 C233.85193074 224.31325268 230.26163726 225.10104215 226.67138672 225.88916016 C225.5756131 226.12563766 224.47983948 226.36211517 223.3508606 226.60575867 C222.33144379 226.82971817 221.31202698 227.05367767 220.26171875 227.28442383 C219.3708255 227.47808029 218.47993225 227.67173676 217.56204224 227.8712616 C214.94472716 228.55832698 212.54548583 229.52251886 210.03857422 230.53369141 C207.5366578 231.02111431 205.05494087 231.45490097 202.53857422 231.84619141 C194.53623569 233.16282881 186.69128364 234.96427786 178.81982422 236.90795898 C177.96517578 237.11831787 177.11052734 237.32867676 176.22998047 237.54541016 C175.46886963 237.73578857 174.70775879 237.92616699 173.92358398 238.12231445 C172.03857422 238.53369141 172.03857422 238.53369141 170.03857422 238.53369141 C168.19554451 236.04483972 166.45118032 233.54014723 164.72607422 230.97119141 C158.73078303 222.26634951 152.12600934 214.35980482 145.03857422 206.53369141 C144.51730957 205.95071289 143.99604492 205.36773437 143.45898438 204.76708984 C119.43236814 177.90007401 90.06400072 158.60367714 58.03857422 142.53369141 C57.07346924 142.04811768 57.07346924 142.04811768 56.08886719 141.55273438 C48.7021832 137.87699451 41.19600181 135.1049078 33.35107422 132.61181641 C31.38699186 131.97256319 29.43475054 131.29028961 27.51904297 130.51806641 C24.50829094 129.32324828 21.46468493 128.42628306 18.35107422 127.53369141 C17.21283203 127.20369141 16.07458984 126.87369141 14.90185547 126.53369141 C11.17794054 125.569766 7.46358075 124.80156878 3.6887207 124.07373047 C1.03186444 123.53232411 -1.58800869 122.89852401 -4.21923828 122.24462891 C-23.71503014 117.6639076 -42.84562482 117.97085081 -62.74182129 118.47906494 C-64.77415397 118.52908248 -66.80675554 118.56784697 -68.83935547 118.60546875 C-81.20368392 118.83767091 -92.9019678 119.73350767 -104.96142578 122.53369141 C-106.35831743 122.83819725 -107.75546112 123.14154879 -109.15283203 123.44384766 C-118.93471776 125.60500073 -128.47343856 128.32736013 -137.96142578 131.53369141 C-138.66928223 131.76894531 -139.37713867 132.00419922 -140.10644531 132.24658203 C-189.61362052 148.88432923 -237.11823609 180.96157772 -267.96142578 223.53369141 C-268.80477532 224.6707073 -269.64852996 225.80742282 -270.49267578 226.94384766 C-312.04172942 283.44032921 -329.89288522 352.30070352 -320.31079102 421.88037109 C-319.05048707 429.91004034 -317.17318163 437.7164329 -314.96142578 445.53369141 C-314.47544305 447.4903444 -313.9959424 449.44862241 -313.52392578 451.40869141 C-310.40183706 463.79578934 -307.2597538 475.86882408 -301.96142578 487.53369141 C-301.30900023 489.00573508 -300.65807479 490.47844414 -300.00830078 491.95166016 C-298.65414231 495.01711089 -297.29427299 498.07986289 -295.92626953 501.13916016 C-295.61028809 501.8563623 -295.29430664 502.57356445 -294.96875 503.3125 C-294.2617333 504.87150095 -293.5205597 506.41524515 -292.75488281 507.94628906 C-292.17843018 509.12843994 -292.17843018 509.12843994 -291.59033203 510.33447266 C-291.23140869 511.04385986 -290.87248535 511.75324707 -290.50268555 512.48413086 C-289.96142578 514.53369141 -289.96142578 514.53369141 -290.63916016 516.60009766 C-292.07485263 518.69955933 -293.50864175 520.07716616 -295.48876953 521.67041016 C-296.54487427 522.52916748 -296.54487427 522.52916748 -297.62231445 523.40527344 C-298.37359619 524.00452637 -299.12487793 524.6037793 -299.89892578 525.22119141 C-300.67018799 525.84622559 -301.4414502 526.47125977 -302.23608398 527.11523438 C-304.47318526 528.92727939 -306.71679985 530.73098275 -308.96142578 532.53369141 C-321.4702897 542.6773006 -333.63973623 553.10626111 -345.41308594 564.09423828 C-347.85167406 566.36133314 -350.31412392 568.60216163 -352.77392578 570.84619141 C-357.72093874 575.37654418 -362.62906163 579.94706114 -367.52392578 584.53369141 C-368.56093628 585.50495972 -368.56093628 585.50495972 -369.61889648 586.49584961 C-370.26947021 587.1064624 -370.92004395 587.7170752 -371.59033203 588.34619141 C-372.45766968 589.16023437 -372.45766968 589.16023437 -373.3425293 589.99072266 C-374.44249551 591.03909944 -375.5103906 592.12195855 -376.54711914 593.23291016 C-377.96142578 594.53369141 -377.96142578 594.53369141 -379.96142578 594.53369141 C-398.16322089 563.27329379 -412.80870057 531.24535584 -423.14892578 496.53369141 C-423.80708163 494.33532016 -424.4662817 492.13726681 -425.126297 489.93945312 C-425.71798881 487.96752082 -426.3069598 485.9947727 -426.89575195 484.02197266 C-427.574906 481.79889064 -428.2861532 479.58518424 -429.0390625 477.38598633 C-429.88443687 474.77177014 -430.46616636 472.28895532 -430.92626953 469.58447266 C-431.08498535 468.66359863 -431.24370117 467.74272461 -431.40722656 466.79394531 C-431.5694873 465.82118652 -431.73174805 464.84842773 -431.89892578 463.84619141 C-432.07149902 462.82960449 -432.24407227 461.81301758 -432.421875 460.765625 C-432.94124043 457.68930969 -433.45252621 454.61175358 -433.96142578 451.53369141 C-434.10757324 450.65793457 -434.2537207 449.78217773 -434.40429688 448.87988281 C-447.59654991 369.49218258 -436.73467753 290.20814127 -401.96142578 217.53369141 C-401.66929199 216.9154248 -401.3771582 216.2971582 -401.07617188 215.66015625 C-392.59087906 197.76654318 -382.24517819 180.79160106 -370.96142578 164.53369141 C-370.5745459 163.96811523 -370.18766602 163.40253906 -369.7890625 162.81982422 C-360.3670071 149.06448451 -349.71438485 136.28239755 -338.34423828 124.10009766 C-336.30907768 121.9081296 -334.34207055 119.68171889 -332.39892578 117.40869141 C-326.45329005 110.56694311 -319.95562445 104.24679925 -313.06689453 98.36181641 C-310.6041555 96.2234827 -308.22655235 94.00284542 -305.83642578 91.78369141 C-299.48171978 86.00430858 -292.81359422 80.70939362 -285.96142578 75.53369141 C-285.30319824 75.03498535 -284.6449707 74.5362793 -283.96679688 74.02246094 C-249.50446791 48.08773748 -211.65016568 29.40220087 -170.96142578 15.53369141 C-170.30368164 15.30681641 -169.6459375 15.07994141 -168.96826172 14.84619141 C-114.73553464 -3.7048216 -56.53367417 -7.56877938 0 0 Z " fill="#7312D0" transform="translate(693.96142578125,153.46630859375)"/>
<path d="M0 0 C0.24234375 0.81082031 0.4846875 1.62164063 0.734375 2.45703125 C2.36806572 7.85449405 4.03237253 13.21395318 6 18.5 C8.25159318 24.59769981 10.18746766 30.75829773 12 37 C12.31203369 38.06033447 12.31203369 38.06033447 12.63037109 39.14208984 C19.6260662 63.17078174 22.51676046 89.56214826 16 114 C15.82395743 115.41323063 15.6738563 116.83020721 15.5625 118.25 C15.07793095 121.48046033 14.43573559 123.59324356 13.18359375 126.54296875 C10.59303652 132.86644901 8.63031987 139.34379925 6.64453125 145.87695312 C5.02715679 151.09133912 3.19426328 156.04794817 0.90625 161.00512695 C-0.29119867 163.64099793 -1.26799205 166.3399929 -2.25 169.0625 C-4.98321243 176.240298 -8.37840005 182.97613141 -11.88330078 189.79736328 C-13.03040334 192.05996916 -14.14197884 194.33722659 -15.24609375 196.62109375 C-21.33563915 209.15704841 -28.1608715 221.17118511 -35.29785156 233.13818359 C-36.85573931 235.757455 -38.39585868 238.38612508 -39.9296875 241.01953125 C-48.35971587 255.40386017 -57.65679655 269.20093306 -67 283 C-67.68594238 284.01513672 -68.37188477 285.03027344 -69.07861328 286.07617188 C-84.69040457 309.1621418 -100.90028875 331.80047306 -117.46484375 354.2109375 C-119.81988755 357.39736442 -122.16577728 360.59020451 -124.50390625 363.7890625 C-135.09525599 378.26380855 -146.02920133 392.43152385 -157.38696289 406.31323242 C-160.66274797 410.32498022 -163.85925933 414.38157715 -167 418.5 C-171.26171172 424.08788457 -175.66389102 429.54686 -180.11328125 434.98608398 C-183.63654814 439.29970813 -187.08768162 443.66085927 -190.5 448.0625 C-194.93635965 453.76930136 -199.6105022 459.23750649 -204.37280273 464.67382812 C-208.01279466 468.83506124 -211.50244982 473.08382 -214.92578125 477.42578125 C-218.97162188 482.44689043 -223.21842835 487.30003211 -227.43115234 492.18115234 C-229.98054134 495.13679318 -232.5219059 498.09929896 -235.0625 501.0625 C-235.55975586 501.64225586 -236.05701172 502.22201172 -236.56933594 502.81933594 C-239.89478936 506.70011623 -243.20239118 510.59554573 -246.5 514.5 C-261.93707227 532.76789943 -261.93707227 532.76789943 -268.6875 540.1875 C-271.6791816 543.47942205 -274.52524423 546.84591307 -277.3125 550.3125 C-281.20450272 555.12825904 -285.3325787 559.65249962 -289.56225586 564.16772461 C-292.63949725 567.47142754 -295.55643167 570.84393113 -298.375 574.375 C-303.20364226 580.39318004 -308.48519075 585.94801577 -313.7734375 591.55859375 C-316.69174676 594.65773486 -319.5196099 597.82075898 -322.296875 601.046875 C-324.49365905 603.56612276 -326.74689619 606.03102996 -329 608.5 C-333.72484281 613.68231624 -338.39256247 618.90832407 -342.9140625 624.26953125 C-343.54054688 625.00558594 -344.16703125 625.74164062 -344.8125 626.5 C-345.37582031 627.1703125 -345.93914062 627.840625 -346.51953125 628.53125 C-348 630 -348 630 -350 630 C-351.37915676 628.34501189 -352.67650388 626.62169626 -353.9375 624.875 C-354.74980491 623.76452827 -355.56367227 622.65519818 -356.37890625 621.546875 C-356.80703613 620.96357422 -357.23516602 620.38027344 -357.67626953 619.77929688 C-359.85447847 616.85144982 -362.11257213 613.98797619 -364.375 611.125 C-365.06831421 610.24666504 -365.06831421 610.24666504 -365.77563477 609.35058594 C-366.71731788 608.15797187 -367.65929412 606.96558921 -368.6015625 605.7734375 C-369.96833667 604.04015406 -371.32902901 602.30229618 -372.6875 600.5625 C-377.56287622 594.32308409 -382.49507733 588.13611178 -387.5 582 C-393.9369452 574.10820668 -400.23512953 566.1140353 -406.49511719 558.08154297 C-407.50686286 556.78372863 -408.51938462 555.48651891 -409.53271484 554.18994141 C-410.48537552 552.97097958 -411.43632406 551.75067702 -412.38525391 550.52880859 C-414.73130345 547.41705719 -414.73130345 547.41705719 -417.62182617 544.84667969 C-419.90445105 541.78808365 -419.40535995 538.25869711 -419.36328125 534.58984375 C-419.36377975 533.74893692 -419.36427826 532.90803009 -419.36479187 532.04164124 C-419.36244831 530.25193942 -419.35270325 528.46223451 -419.33618164 526.67260742 C-419.31303697 523.99951775 -419.31556224 521.32745816 -419.32226562 518.65429688 C-419.30127359 506.18140611 -419.20566341 493.13280579 -416 481 C-415.79266515 479.02108122 -415.58765026 477.04183152 -415.40429688 475.06054688 C-414.61388262 466.63658238 -413.13350274 458.6933841 -410.9375 450.53125 C-410.18272323 447.68825749 -409.53920371 444.8885913 -409 442 C-406.6303278 429.76350305 -403.16273529 418.14312814 -398.88574219 406.45605469 C-396.81932649 400.72613685 -394.86636913 394.95514185 -392.89160156 389.19311523 C-389.84003736 380.36449078 -386.39055843 371.73431948 -382.625 363.1875 C-382.32972412 362.51460937 -382.03444824 361.84171875 -381.73022461 361.1484375 C-378.90154623 354.72779856 -375.97119283 348.35595829 -373 342 C-365.41430825 344.31153459 -358.40614755 347.48343502 -351.28515625 350.94726562 C-346.33661863 353.26190419 -342.54404966 354.95279049 -337 354 C-332.83609718 352.37049501 -328.90231591 350.37377277 -324.9375 348.3125 C-323.2196228 347.43489014 -323.2196228 347.43489014 -321.46704102 346.53955078 C-305.01206076 338.03263217 -289.24338073 328.41130776 -273.80322266 318.19189453 C-272.1798856 317.11890082 -270.54935701 316.05680627 -268.91796875 314.99609375 C-252.01037668 303.91711071 -235.6926279 291.73175471 -220 279 C-219.13890625 278.31421875 -218.2778125 277.6284375 -217.390625 276.921875 C-211.63832752 272.30008685 -206.14573396 267.47035919 -200.76635742 262.42480469 C-197.9291328 259.76482161 -195.05425883 257.16968198 -192.109375 254.62890625 C-187.87618401 250.94286239 -183.89384411 247.04186842 -179.9375 243.0625 C-179.26912109 242.39798828 -178.60074219 241.73347656 -177.91210938 241.04882812 C-173.40285647 236.53081088 -169.15609882 231.84294146 -165 227 C-164.14277344 226.02417969 -163.28554688 225.04835938 -162.40234375 224.04296875 C-150.49659994 210.25041926 -139.7046775 195.42005214 -130 180 C-129.25218262 178.81229004 -129.25218262 178.81229004 -128.48925781 177.60058594 C-119.75627459 163.59065115 -112.5087873 149.16330003 -106 134 C-105.57211182 133.0114502 -105.14422363 132.02290039 -104.70336914 131.00439453 C-101.9201788 124.47122695 -99.53371524 117.90788031 -97.4375 111.125 C-96.99144409 109.70272095 -96.99144409 109.70272095 -96.53637695 108.25170898 C-94.23408743 100.86794206 -92.06653548 93.45323934 -90 86 C-89.66742187 84.9996875 -89.33484375 83.999375 -88.9921875 82.96875 C-88.00659887 79.55138476 -87.62690834 76.15374048 -87.24609375 72.62109375 C-87.11267578 71.45255859 -86.97925781 70.28402344 -86.84179688 69.08007812 C-86.57215289 66.65067703 -86.32996098 64.21807274 -86.11523438 61.78320312 C-85.05930482 53.13031436 -85.05930482 53.13031436 -82.09521484 49.9675293 C-79.79591587 48.41076835 -77.51017493 47.18215793 -75 46 C-73.78235749 45.30794729 -72.56845011 44.60925789 -71.359375 43.90234375 C-70.15729823 43.24547392 -68.95413117 42.59059621 -67.75 41.9375 C-50.26702799 32.2390842 -33.63241871 21.20454937 -17.046875 10.06640625 C-16.01755859 9.37562988 -14.98824219 8.68485352 -13.92773438 7.97314453 C-12.0387511 6.70006558 -10.15427123 5.42026657 -8.27539062 4.13232422 C-7.46779297 3.58205566 -6.66019531 3.03178711 -5.828125 2.46484375 C-5.13106445 1.98523193 -4.43400391 1.50562012 -3.71582031 1.01147461 C-2 0 -2 0 0 0 Z " fill="#7312D0" transform="translate(990,539)"/>
</g>
</svg>
